<!DOCTYPE svg PUBLIC "-//W3C//DTD SVG 1.1//EN" "http://www.w3.org/Graphics/SVG/1.1/DTD/svg11.dtd">
<!-- Uploaded to: SVG Repo, www.svgrepo.com, Transformed by: SVG Repo Mixer Tools -->
<svg width="64px" height="64px" viewBox="-38.4 -38.4 268.80 268.80" xmlns="http://www.w3.org/2000/svg" id="Layer_1" data-name="Layer 1" fill="#000000" transform="rotate(0)">
<g id="SVGRepo_bgCarrier" stroke-width="0" transform="translate(0,0), scale(1)">
<path transform="translate(-38.4, -38.4), scale(16.8)" fill="#57ebff" d="M9.166.33a2.25 2.25 0 00-2.332 0l-5.25 3.182A2.25 2.25 0 00.5 5.436v5.128a2.25 2.25 0 001.084 1.924l5.25 3.182a2.25 2.25 0 002.332 0l5.25-3.182a2.25 2.25 0 001.084-1.924V5.436a2.25 2.25 0 00-1.084-1.924L9.166.33z" strokewidth="0"/>
</g>
<g id="SVGRepo_tracerCarrier" stroke-linecap="round" stroke-linejoin="round"/>
<g id="SVGRepo_iconCarrier">
<defs>
<style>.cls-2{fill:none;stroke:#0380bf;stroke-linejoin:round;stroke-width:12px;stroke-linecap:round}</style>
</defs>
<path d="M0 0h192v192H0z" style="fill:none"/>
<path d="m65.5 64 31.08-15.96L128.5 64 97.42 79.96 65.5 64z" class="cls-2"/>
<path d="m86.75 122-30-16V76l30 16v30zm48.5-45-30 16v30l30-16V77z" style="fill:none;stroke:#0380bf;stroke-linejoin:round;stroke-width:12px"/>
<path d="M96 22c-24 0-39.84 13.93-45.33 19.43C46 46.14 30.51 63 31.25 88.6c.69 23.84 15 39.14 19.42 43.48a66.15 66.15 0 0 0 29.6 16.64L96 170l15.72-21.28a66.05 66.05 0 0 0 29.6-16.64c4.43-4.34 18.74-19.64 19.43-43.48.74-25.6-14.75-42.46-19.43-47.17C135.84 35.93 120 22 96 22Z" class="cls-2"/>
</g>
</svg>